<?xml version="1.0" encoding="utf-8"?>
<!-- Generator: Adobe Illustrator 16.0.0, SVG Export Plug-In . SVG Version: 6.00 Build 0)  -->
<!DOCTYPE svg PUBLIC "-//W3C//DTD SVG 1.1//EN" "http://www.w3.org/Graphics/SVG/1.1/DTD/svg11.dtd">
<svg version="1.1" id="圖層_1" xmlns="http://www.w3.org/2000/svg" xmlns:xlink="http://www.w3.org/1999/xlink" x="0px" y="0px"
	 width="24px" height="23px" viewBox="0 0 24 23" enable-background="new 0 0 24 23" xml:space="preserve">
<path fill="none" stroke="#3D3D3D" stroke-width="2" stroke-linecap="round" stroke-linejoin="round" d="M20,22c0.553,0,1-0.447,1-1
	s-0.447-1-1-1s-1,0.447-1,1S19.447,22,20,22z"/>
<path fill="none" stroke="#3D3D3D" stroke-width="2" stroke-linecap="round" stroke-linejoin="round" d="M9,22c0.552,0,1-0.447,1-1
	s-0.448-1-1-1s-1,0.447-1,1S8.448,22,9,22z"/>
<path fill="none" stroke="#3D3D3D" stroke-width="2" stroke-linecap="round" stroke-linejoin="round" d="M1,1h4l2.68,13.391
	c0.091,0.46,0.342,0.873,0.708,1.168C8.753,15.853,9.211,16.009,9.68,16h9.72c0.469,0.009,0.926-0.147,1.292-0.441
	c0.366-0.295,0.616-0.708,0.708-1.168L23,6H6"/>
</svg>
