<?xml version="1.0" encoding="utf-8"?>
<!-- Generator: Adobe Illustrator 16.0.0, SVG Export Plug-In . SVG Version: 6.00 Build 0)  -->
<!DOCTYPE svg PUBLIC "-//W3C//DTD SVG 1.1//EN" "http://www.w3.org/Graphics/SVG/1.1/DTD/svg11.dtd">
<svg version="1.1" id="圖層_1" xmlns="http://www.w3.org/2000/svg" xmlns:xlink="http://www.w3.org/1999/xlink" x="0px" y="0px"
	 width="289.999px" height="120px" viewBox="0.166 0 289.999 120" enable-background="new 0.166 0 289.999 120"
	 xml:space="preserve">
<g>
	<path fill="#EFA2A2" d="M10.356,62.327C10.328,32.896,34.194,9.029,63.716,9.075c29.413,0.045,53.216,23.934,53.187,53.454
		c-0.028,29.229-24.06,53.177-53.404,53.084C33.963,115.521,10.317,91.652,10.356,62.327z M111.339,62.15
		c0.132-26.417-21.396-48.192-48.145-48.163c-26.588,0.029-48.197,21.089-48.228,48.151c-0.029,27.313,21.942,48.297,48.306,48.26
		C89.898,110.361,111.492,88.656,111.339,62.15z"/>
	<path fill="#EFA2A2" d="M56.751,107.07c-4.262-0.504-7.994-1.579-11.516-3.176c-13.901-6.305-22.88-16.879-26.304-31.771
		c-2.707-11.775-0.937-23.054,5.442-33.419c7.117-11.565,17.401-18.998,30.77-21.145c18.979-3.048,34.345,3.571,45.602,19.215
		c4.633,6.439,6.953,13.779,7.608,21.711c1.004,12.157-2.369,22.985-9.97,32.366c-6.72,8.293-15.433,13.646-25.992,15.762
		c-0.516,0.104-1.175,0.566-1.595,0.113c-0.515-0.553,0.093-1.189,0.294-1.726c2.235-5.981,4.493-11.958,6.814-17.907
		c0.534-1.369,0.574-1.923-1.218-1.906c-8.97,0.082-17.941,0.074-26.913,0.008c-1.756-0.014-1.798,0.441-1.184,1.904
		C51.325,93.613,53.946,100.178,56.751,107.07z M37.839,29.049c0.214-0.678,1.343-1.275,0.309-2.061
		c-0.676-0.514-1.265,0.093-1.534,0.596c-0.732,1.369,0.333,1.381,1.239,1.454c0.145,2.441,2.242,3.53,3.589,5.132
		c0.266,0.316,0.693,0.129,0.99-0.156c0.391-0.375,0.327-0.767,0.042-1.166c-0.577-0.81-1.215-1.583-1.712-2.438
		C40.082,29.241,39.223,28.621,37.839,29.049z M77.376,50.499c0.03-2.106-0.834-3.443-2.112-4.558
		c-1.61-1.405-3.644-1.922-5.609-2.535c-3.43-1.067-6.086-2.958-7.146-6.548c-0.273-0.928-0.638-0.974-1.449-0.708
		c-3.042,0.996-4.823,4.527-3.943,7.94c0.606,2.348,0.39,2.69-2,2.617c-2.806-0.087-4.866,1.109-6.146,3.527
		c-1.198,2.263-1.074,4.531,0.348,6.735c1.243,1.928,0.867,2.661-1.45,2.896c-1.48,0.15-2.818,0.57-3.914,1.604
		c-0.375,0.354-0.802,0.881-0.095,1.195c2.209,0.986,3.447,3.074,5.277,4.479c2.025,1.555,4.413,1.461,6.364-0.26
		c0.938-0.828,1.781-1.766,2.696-2.623c2.983-2.796,6.646-2.994,9.89-0.478c0.935,0.725,1.733,1.628,2.589,2.456
		c2.815,2.727,5.416,2.691,8.182-0.08c1.409-1.41,2.658-3.014,4.662-3.702c0.958-0.331,0.757-0.983,0.256-1.63
		c-1.767-2.27-4.071-3.45-6.959-3.5c-0.834-0.014-1.908,0.371-2.301-0.727c-0.358-0.999,0.522-1.594,1.131-2.194
		C76.836,53.232,77.289,51.78,77.376,50.499z M63.323,76.148c-5.266,0-10.531,0-15.798,0c-4.808,0-4.716,0.002-4.833,4.76
		c-0.042,1.761,0.581,2.027,2.144,2.02c11.346-0.063,22.693-0.035,34.042-0.035c4.913,0,4.837,0,4.92-4.854
		c0.027-1.651-0.554-1.942-2.043-1.923C75.611,76.193,69.468,76.148,63.323,76.148z M62.841,73.82c4.579,0,9.158,0.035,13.737-0.01
		c4.501-0.045,8.25-3.227,8.66-7.285c0.055-0.535,0.311-1.236-0.224-1.582c-0.59-0.379-1.271-0.008-1.729,0.392
		c-1.132,0.987-2.186,2.065-3.269,3.106c-2.107,2.025-4.585,2.76-7.415,1.969c-1.867-0.521-3.271-1.719-4.494-3.235
		c-2.803-3.474-6.042-3.553-9.07-0.335c-0.603,0.641-1.215,1.271-1.857,1.868c-2.968,2.753-7.219,2.709-10.16-0.106
		c-0.951-0.912-1.839-1.889-2.793-2.795c-0.64-0.609-1.479-1.375-2.292-0.836c-0.682,0.452-0.701,1.498-0.536,2.424
		c0.745,4.18,3.294,6.369,7.704,6.416C53.681,73.857,58.261,73.82,62.841,73.82z M90.913,33.852c-0.011-0.67-0.52-1.392-1.163-1.627
		c-1.676-0.611-2.226-2.385-3.858-3.212c-1.99-1.007-1.769-1.453-2.971,0.457c-0.5,0.792-0.987,1.594-1.466,2.398
		c-0.225,0.375-0.508,0.795-0.042,1.167c0.473,0.377,0.955,0.234,1.327-0.185c0.622-0.699,1.204-1.432,1.818-2.139
		c0.336-0.387,0.771-0.811,1.271-0.414c0.583,0.463,0.232,1.012-0.124,1.476c-0.572,0.742-1.171,1.464-1.732,2.213
		c-0.297,0.396-0.294,0.808,0.091,1.176c0.447,0.428,0.775,0.165,1.111-0.167c0.755-0.748,1.515-1.492,2.281-2.229
		c0.428-0.413,0.889-0.457,1.311-0.004c0.414,0.444,0.107,0.806-0.204,1.13c-0.736,0.767-1.492,1.515-2.225,2.285
		c-0.339,0.354-0.423,0.765-0.08,1.174c0.404,0.482,0.849,0.446,1.305,0.07c0.914-0.755,1.834-1.503,2.738-2.271
		C90.638,34.862,90.899,34.507,90.913,33.852z M25.782,64.061c1.653,0.006,2.989-1.299,3.021-2.949
		c0.033-1.653-1.251-3.01-2.901-3.068c-1.726-0.059-3.134,1.317-3.114,3.042C22.805,62.736,24.132,64.053,25.782,64.061z
		 M103.366,61.057c0.005-1.651-1.304-2.985-2.954-3.014c-1.654-0.028-3.009,1.258-3.063,2.908c-0.056,1.727,1.323,3.132,3.049,3.109
		C102.051,64.037,103.362,62.71,103.366,61.057z M77.607,27.561c-1.147-0.026-1.81,0.305-1.973,1.166
		c-0.146,0.775,0.353,1.27,1.014,1.613c2.757,1.43,2.756,1.432,4.473-1.082c0.069-0.104,0.16-0.195,0.219-0.304
		c0.447-0.831,1.474-1.581,0.539-2.65c-1.029-1.176-2.303-1.927-3.939-1.728c-0.667,0.081-0.867,0.631-0.952,1.226
		c-0.071,0.505,0.158,0.794,0.583,1.05c0.583,0.349,0.917,0.137,1.214-0.369c0.25-0.424,0.473-0.958,1.13-0.633
		c0.388,0.191,0.521,0.538,0.316,0.938c-0.272,0.54-0.438,1.252-1.286,1.101C78.399,27.792,77.863,27.626,77.607,27.561z
		 M51.349,22.613c-3.054,0.013-4.138,1.693-2.862,4.293c1.116,2.274,2.511,2.765,4.37,1.524c0.521-0.347,1.086-0.712,0.959-1.461
		c-0.033-0.193-0.302-0.472-0.485-0.493c-0.784-0.087-1.081,0.395-1.209,1.108c-0.071,0.396-0.44,0.676-0.84,0.542
		c-0.24-0.08-0.463-0.406-0.564-0.67c-0.149-0.388,0.02-0.741,0.399-0.938c0.277-0.144,0.563-0.315,0.863-0.363
		c1.229-0.198,1.474-0.959,1.269-2.044C53.037,22.992,52.385,22.495,51.349,22.613z M45.064,25.263
		c-1.224,0.009-2.924,1.082-3.505,2.239c-0.653,1.301,0.521,1.944,1.094,2.73c1.552,2.127,4.127,2.019,5.177-0.152
		c0.225-0.465,0.374-1.025-0.252-1.274c-0.469-0.186-0.893,0.159-1.016,0.593c-0.166,0.588-0.061,1.385-0.891,1.435
		c-0.896,0.054-0.882-0.915-1.271-1.43c-0.261-0.347-0.464-0.742-0.671-1.127c-0.312-0.579-0.577-1.26,0.14-1.647
		c0.771-0.417,0.872,0.448,1.149,0.861c0.33,0.489,0.614,1,1.321,0.655c0.38-0.186,0.958-0.36,0.8-0.887
		C46.836,26.242,46.488,25.161,45.064,25.263z M72.552,22.238c-1.758-0.04-1.817,0.037-2.405,3.16
		c-0.38,2.021,0.974,3.477,3.015,3.265c0.529-0.055,1.015-0.177,1.143-0.759c0.042-0.19-0.081-0.538-0.235-0.626
		c-0.403-0.233-0.837-0.203-1.182,0.187c-0.425,0.48-0.873,0.454-1.271-0.012c-0.347-0.407-0.103-0.817,0.074-1.221
		c0.269-0.611,0.698-0.339,1.103-0.222c0.299,0.086,0.601,0.168,0.892,0.277c0.722,0.266,1.354,0.265,1.732-0.544
		c0.376-0.801,0.843-1.659,0.043-2.415C74.671,22.582,73.672,22.2,72.552,22.238z M59.729,23.892c-0.015,0-0.029,0-0.043,0
		c0-0.375-0.008-0.751,0.001-1.126c0.014-0.509,0.016-1.091,0.707-1.1c0.668-0.008,0.762,0.553,0.769,1.069
		c0.009,0.809,0.04,1.581,1.181,1.389c1.188-0.2,0.652-1.162,0.72-1.811c0.077-0.736-0.456-1.086-1.088-1.334
		c-2.621-1.033-4.526,0.415-4.151,3.17c0.348,2.554,1.732,3.57,3.888,2.857c0.564-0.188,1.001-0.501,1.179-1.101
		c0.085-0.288-0.016-0.519-0.284-0.582c-0.574-0.136-0.996-0.059-1.42,0.528c-0.739,1.022-1.247,0.462-1.438-0.462
		C59.647,24.909,59.729,24.392,59.729,23.892z M64.58,23.936c-0.011,0-0.021,0-0.03,0c0,0.686-0.004,1.371,0.001,2.056
		c0.004,0.51,0,1.043,0.704,1.091c0.712,0.049,0.755-0.47,0.82-0.987c0.117-0.923,0.259-1.843,0.394-2.764
		c0.063-0.435,0.109-0.939,0.679-0.947c0.54-0.007,0.443,0.498,0.487,0.837c0.081,0.619,0.484,0.827,1.03,0.866
		c0.711,0.05,0.709-0.495,0.856-0.979c0.449-1.476-0.287-1.934-1.594-1.966c-0.519-0.014-0.95,0.38-1.576-0.027
		c-1.203-0.781-1.847-0.295-1.777,1.139C64.602,22.814,64.58,23.376,64.58,23.936z"/>
	<path fill="#EFA2A2" d="M78.871,29.191c-0.053,0.446-0.313,0.654-0.748,0.625c-0.396-0.026-0.752-0.155-0.716-0.641
		c0.028-0.366,0.31-0.507,0.649-0.512C78.439,28.661,78.812,28.687,78.871,29.191z"/>
	<path fill="#EFA2A2" d="M50.434,23.51c0.73,0.151,0.827,0.728,0.939,1.251c0.109,0.508-0.148,0.833-0.674,0.874
		c-0.938,0.072-0.84-0.765-0.995-1.276C49.534,23.805,50.117,23.717,50.434,23.51z"/>
	<path fill="#EFA2A2" d="M72.994,25.24c-0.49-0.124-0.91-0.316-0.713-0.889c0.175-0.506,0.256-1.193,0.991-1.194
		c0.54,0,0.783,0.423,0.652,0.913C73.791,24.572,73.76,25.24,72.994,25.24z"/>
</g>
<path fill="#040000" d="M131.29,50.66l6.826-0.428c0.147,1.108,0.449,1.954,0.903,2.534c0.739,0.94,1.795,1.41,3.167,1.41
	c1.025,0,1.814-0.241,2.368-0.722c0.554-0.48,0.832-1.037,0.832-1.67c0-0.602-0.264-1.14-0.792-1.615
	c-0.528-0.475-1.752-0.924-3.673-1.346c-3.146-0.708-5.39-1.647-6.732-2.82c-1.352-1.172-2.027-2.666-2.027-4.482
	c0-1.193,0.347-2.32,1.037-3.381c0.691-1.062,1.732-1.896,3.12-2.502c1.389-0.606,3.292-0.911,5.709-0.911
	c2.967,0,5.229,0.551,6.787,1.655c1.557,1.104,2.484,2.858,2.779,5.266l-6.763,0.396c-0.179-1.045-0.557-1.806-1.132-2.28
	c-0.576-0.475-1.371-0.713-2.384-0.713c-0.834,0-1.462,0.177-1.885,0.531s-0.633,0.784-0.633,1.291c0,0.37,0.174,0.702,0.522,0.997
	c0.338,0.307,1.14,0.591,2.407,0.855c3.136,0.676,5.382,1.359,6.739,2.05c1.355,0.691,2.344,1.55,2.96,2.573
	c0.618,1.024,0.927,2.169,0.927,3.437c0,1.489-0.412,2.861-1.235,4.118c-0.824,1.256-1.974,2.208-3.453,2.859
	c-1.479,0.65-3.342,0.974-5.591,0.974c-3.949,0-6.684-0.76-8.203-2.281C132.35,54.935,131.491,53.004,131.29,50.66z"/>
<path fill="#040000" d="M155.196,35.124h6.813l2.454,12.998l3.59-12.998h6.79l3.6,12.98l2.456-12.98h6.779l-5.118,23.218h-7.036
	l-4.072-14.618l-4.056,14.618h-7.036L155.196,35.124z"/>
<path fill="#040000" d="M191.628,35.124h19.23v4.957H198.82v3.691h11.168v4.735H198.82v4.577h12.388v5.258h-19.579V35.124z"/>
<path fill="#040000" d="M216.677,35.124h19.228v4.957h-12.036v3.691h11.165v4.735h-11.165v4.577h12.385v5.258h-19.576V35.124z"/>
<path fill="#040000" d="M240.109,35.124h21.809v5.733H254.6v17.485h-7.174V40.856h-7.317V35.124z"/>
<path fill="#040000" d="M131.665,65.757h7.174v8.124h7.84v-8.124h7.206v23.218h-7.206v-9.392h-7.84v9.392h-7.174V65.757z"/>
<path fill="#040000" d="M159.371,77.382c0-3.791,1.056-6.742,3.167-8.854s5.052-3.168,8.822-3.168c3.864,0,6.842,1.037,8.932,3.111
	c2.091,2.075,3.136,4.981,3.136,8.72c0,2.714-0.458,4.938-1.371,6.675c-0.913,1.736-2.233,3.088-3.959,4.055
	c-1.726,0.966-3.878,1.449-6.454,1.449c-2.619,0-4.787-0.417-6.501-1.253c-1.716-0.834-3.107-2.153-4.174-3.959
	C159.903,82.353,159.371,80.095,159.371,77.382z M166.546,77.413c0,2.345,0.436,4.029,1.307,5.053s2.057,1.536,3.555,1.536
	c1.542,0,2.735-0.502,3.581-1.505c0.844-1.003,1.267-2.804,1.267-5.4c0-2.186-0.44-3.782-1.323-4.79
	c-0.881-1.009-2.077-1.514-3.586-1.514c-1.446,0-2.609,0.512-3.484,1.536C166.985,73.354,166.546,75.048,166.546,77.413z"/>
<path fill="#040000" d="M204.024,65.757h7.162V79.59c0,1.371-0.214,2.666-0.643,3.886s-1.098,2.285-2.012,3.196
	c-0.914,0.912-1.873,1.555-2.875,1.923c-1.394,0.518-3.067,0.776-5.021,0.776c-1.13,0-2.362-0.08-3.697-0.238
	c-1.335-0.158-2.453-0.472-3.351-0.941c-0.897-0.469-1.717-1.137-2.462-2.001c-0.744-0.865-1.254-1.758-1.528-2.676
	c-0.443-1.477-0.665-2.784-0.665-3.925V65.757h7.159v14.162c0,1.267,0.351,2.256,1.053,2.967c0.702,0.713,1.676,1.068,2.922,1.068
	c1.235,0,2.204-0.351,2.906-1.053c0.702-0.7,1.053-1.694,1.053-2.982V65.757H204.024z"/>
<path fill="#040000" d="M216.308,81.293l6.825-0.427c0.148,1.107,0.449,1.953,0.903,2.533c0.739,0.94,1.795,1.41,3.168,1.41
	c1.024,0,1.813-0.241,2.368-0.722c0.554-0.48,0.831-1.036,0.831-1.67c0-0.602-0.264-1.141-0.792-1.615
	c-0.527-0.476-1.752-0.924-3.674-1.347c-3.146-0.707-5.391-1.646-6.731-2.819c-1.352-1.172-2.027-2.666-2.027-4.481
	c0-1.193,0.347-2.321,1.037-3.383c0.691-1.061,1.731-1.895,3.12-2.502c1.388-0.605,3.291-0.91,5.709-0.91
	c2.967,0,5.23,0.551,6.787,1.654c1.557,1.104,2.483,2.859,2.779,5.267l-6.763,0.396c-0.18-1.045-0.558-1.807-1.133-2.28
	c-0.575-0.476-1.371-0.713-2.384-0.713c-0.835,0-1.463,0.176-1.885,0.529c-0.423,0.354-0.634,0.785-0.634,1.292
	c0,0.369,0.174,0.702,0.522,0.998c0.338,0.306,1.142,0.591,2.407,0.854c3.136,0.676,5.383,1.358,6.739,2.051
	c1.355,0.691,2.344,1.55,2.962,2.572c0.616,1.024,0.925,2.17,0.925,3.437c0,1.489-0.411,2.861-1.235,4.118
	c-0.822,1.257-1.973,2.208-3.451,2.858c-1.479,0.65-3.343,0.975-5.591,0.975c-3.95,0-6.684-0.761-8.204-2.281
	C217.368,85.567,216.509,83.638,216.308,81.293z"/>
<path fill="#040000" d="M242.589,65.757h19.228v4.957H249.78v3.69h11.166v4.735H249.78v4.577h12.385v5.258h-19.575V65.757z"/>
</svg>
