<?xml version="1.0" encoding="utf-8"?>
<!-- Generator: Adobe Illustrator 16.0.0, SVG Export Plug-In . SVG Version: 6.00 Build 0)  -->
<!DOCTYPE svg PUBLIC "-//W3C//DTD SVG 1.1//EN" "http://www.w3.org/Graphics/SVG/1.1/DTD/svg11.dtd">
<svg version="1.1" id="圖層_1" xmlns="http://www.w3.org/2000/svg" xmlns:xlink="http://www.w3.org/1999/xlink" x="0px" y="0px"
	 width="425px" height="120px" viewBox="0 0 425 120" enable-background="new 0 0 425 120" xml:space="preserve">
<g>
	<path fill-rule="evenodd" clip-rule="evenodd" fill="#EFA2A2" d="M3.353,62.327C3.324,32.896,27.191,9.029,56.712,9.075
		c29.413,0.045,53.216,23.934,53.187,53.454c-0.029,29.229-24.06,53.177-53.405,53.085C26.959,115.521,3.314,91.653,3.353,62.327z
		 M104.335,62.15c0.132-26.417-21.396-48.192-48.144-48.162C29.603,14.017,7.993,35.077,7.963,62.139
		c-0.029,27.312,21.943,48.297,48.306,48.259C82.895,110.361,104.489,88.657,104.335,62.15z"/>
	<path fill-rule="evenodd" clip-rule="evenodd" fill="#EFA2A2" d="M49.747,107.071c-4.261-0.504-7.994-1.58-11.515-3.176
		C24.33,97.59,15.352,87.016,11.928,72.124C9.221,60.349,10.991,49.07,17.37,38.705C24.488,27.14,34.772,19.707,48.14,17.56
		c18.978-3.048,34.345,3.571,45.601,19.215c4.633,6.439,6.954,13.779,7.609,21.711c1.004,12.157-2.369,22.984-9.97,32.365
		c-6.72,8.293-15.432,13.646-25.992,15.763c-0.516,0.104-1.175,0.565-1.595,0.113c-0.514-0.553,0.093-1.19,0.294-1.726
		c2.236-5.982,4.493-11.958,6.815-17.908c0.534-1.368,0.574-1.922-1.218-1.906c-8.97,0.082-17.942,0.074-26.913,0.008
		c-1.756-0.013-1.798,0.442-1.184,1.904C44.322,93.614,46.943,100.177,49.747,107.071z M30.835,29.049
		c0.214-0.678,1.343-1.275,0.309-2.061c-0.676-0.514-1.265,0.093-1.534,0.596c-0.733,1.369,0.333,1.381,1.239,1.454
		c0.144,2.441,2.242,3.53,3.589,5.132c0.265,0.316,0.693,0.129,0.99-0.156c0.391-0.375,0.327-0.767,0.042-1.166
		c-0.577-0.81-1.215-1.583-1.712-2.438C33.078,29.241,32.22,28.621,30.835,29.049z M70.372,50.499
		c0.031-2.106-0.834-3.443-2.112-4.558c-1.61-1.405-3.644-1.922-5.609-2.535c-3.43-1.067-6.086-2.958-7.147-6.548
		c-0.273-0.928-0.638-0.974-1.449-0.708c-3.042,0.996-4.823,4.527-3.943,7.94c0.606,2.348,0.389,2.69-2,2.617
		c-2.806-0.087-4.867,1.109-6.146,3.527c-1.198,2.263-1.074,4.531,0.348,6.735c1.243,1.928,0.867,2.661-1.45,2.896
		c-1.481,0.15-2.819,0.57-3.915,1.603c-0.375,0.355-0.801,0.881-0.094,1.196c2.209,0.986,3.447,3.075,5.277,4.479
		c2.025,1.555,4.413,1.46,6.364-0.26c0.939-0.828,1.782-1.766,2.697-2.623c2.983-2.796,6.646-2.995,9.889-0.478
		c0.935,0.725,1.734,1.628,2.589,2.456c2.816,2.727,5.416,2.692,8.182-0.08c1.409-1.41,2.658-3.013,4.662-3.702
		c0.958-0.331,0.757-0.984,0.256-1.63c-1.767-2.27-4.072-3.45-6.959-3.5c-0.834-0.014-1.908,0.371-2.301-0.727
		c-0.358-0.999,0.522-1.594,1.131-2.194C69.832,53.232,70.285,51.78,70.372,50.499z M56.32,76.148c-5.266,0-10.532,0-15.798,0
		c-4.808,0-4.716,0.002-4.833,4.76c-0.042,1.761,0.581,2.027,2.143,2.019c11.346-0.062,22.694-0.034,34.042-0.034
		c4.913,0,4.837-0.001,4.92-4.855c0.028-1.652-0.554-1.942-2.043-1.923C68.608,76.193,62.464,76.148,56.32,76.148z M55.837,73.82
		c4.579,0,9.158,0.036,13.737-0.01c4.501-0.045,8.25-3.226,8.661-7.285c0.054-0.535,0.31-1.236-0.224-1.581
		c-0.59-0.38-1.271-0.009-1.729,0.391c-1.131,0.988-2.185,2.065-3.268,3.107c-2.108,2.025-4.585,2.759-7.415,1.968
		c-1.867-0.522-3.272-1.719-4.494-3.235c-2.803-3.474-6.042-3.553-9.071-0.335c-0.602,0.64-1.214,1.272-1.857,1.868
		c-2.968,2.753-7.219,2.709-10.16-0.107c-0.951-0.911-1.839-1.888-2.793-2.794c-0.64-0.609-1.48-1.376-2.292-0.837
		c-0.682,0.453-0.701,1.499-0.536,2.424c0.745,4.18,3.294,6.369,7.704,6.417C46.678,73.858,51.258,73.82,55.837,73.82z
		 M83.909,33.852c-0.01-0.67-0.519-1.392-1.163-1.627c-1.675-0.611-2.225-2.385-3.858-3.212c-1.99-1.007-1.769-1.453-2.971,0.457
		c-0.5,0.792-0.987,1.594-1.466,2.398c-0.224,0.375-0.507,0.795-0.042,1.167c0.473,0.377,0.956,0.234,1.328-0.185
		c0.622-0.699,1.204-1.432,1.818-2.139c0.336-0.387,0.771-0.811,1.27-0.414c0.583,0.463,0.233,1.012-0.124,1.476
		c-0.572,0.742-1.17,1.464-1.732,2.213c-0.297,0.396-0.294,0.808,0.091,1.176c0.447,0.428,0.775,0.165,1.111-0.167
		c0.755-0.748,1.515-1.492,2.281-2.229c0.428-0.413,0.889-0.457,1.311-0.004c0.414,0.444,0.107,0.806-0.204,1.13
		c-0.736,0.767-1.492,1.515-2.225,2.285c-0.339,0.355-0.423,0.765-0.08,1.174c0.404,0.482,0.849,0.446,1.305,0.07
		c0.914-0.755,1.834-1.503,2.738-2.271C83.635,34.862,83.896,34.507,83.909,33.852z M18.779,64.06
		c1.653,0.006,2.989-1.298,3.021-2.948c0.033-1.654-1.251-3.011-2.901-3.069c-1.726-0.059-3.134,1.317-3.115,3.042
		C15.802,62.737,17.128,64.053,18.779,64.06z M96.363,61.057c0.004-1.651-1.304-2.985-2.955-3.014
		c-1.654-0.028-3.008,1.258-3.062,2.908c-0.056,1.726,1.323,3.132,3.049,3.109C95.047,64.037,96.359,62.71,96.363,61.057z
		 M70.604,27.561c-1.148-0.026-1.81,0.305-1.973,1.166c-0.146,0.775,0.353,1.27,1.014,1.613c2.757,1.43,2.756,1.432,4.472-1.082
		c0.07-0.104,0.161-0.195,0.219-0.304c0.447-0.831,1.474-1.581,0.539-2.65c-1.029-1.176-2.302-1.927-3.939-1.728
		c-0.667,0.081-0.867,0.631-0.952,1.226c-0.072,0.505,0.158,0.794,0.583,1.05c0.583,0.349,0.917,0.137,1.214-0.369
		c0.25-0.424,0.472-0.958,1.129-0.633c0.388,0.191,0.521,0.538,0.317,0.938c-0.273,0.54-0.438,1.252-1.286,1.101
		C71.396,27.792,70.86,27.626,70.604,27.561z M44.346,22.613c-3.054,0.013-4.138,1.693-2.862,4.293
		c1.116,2.274,2.51,2.765,4.37,1.524c0.52-0.347,1.086-0.712,0.959-1.461c-0.033-0.193-0.302-0.472-0.486-0.493
		c-0.784-0.087-1.081,0.395-1.209,1.108c-0.071,0.396-0.44,0.676-0.839,0.542c-0.241-0.08-0.463-0.406-0.565-0.67
		c-0.149-0.388,0.02-0.741,0.4-0.938c0.277-0.144,0.563-0.315,0.863-0.363c1.229-0.198,1.473-0.959,1.268-2.044
		C46.033,22.992,45.382,22.495,44.346,22.613z M38.061,25.263c-1.224,0.009-2.924,1.082-3.505,2.239
		c-0.653,1.301,0.521,1.944,1.094,2.73c1.551,2.127,4.127,2.019,5.176-0.152c0.225-0.465,0.374-1.025-0.252-1.274
		c-0.468-0.186-0.892,0.159-1.015,0.593c-0.166,0.588-0.061,1.385-0.891,1.435c-0.896,0.054-0.882-0.915-1.27-1.43
		c-0.261-0.347-0.464-0.742-0.671-1.127c-0.312-0.579-0.577-1.26,0.139-1.647c0.772-0.417,0.873,0.448,1.15,0.861
		c0.33,0.489,0.614,1,1.321,0.655c0.38-0.186,0.958-0.36,0.8-0.887C39.832,26.242,39.485,25.161,38.061,25.263z M65.548,22.238
		c-1.758-0.04-1.817,0.037-2.405,3.16c-0.38,2.021,0.973,3.477,3.014,3.265c0.53-0.055,1.015-0.177,1.143-0.759
		c0.042-0.19-0.081-0.538-0.235-0.626c-0.404-0.233-0.837-0.203-1.182,0.187c-0.425,0.48-0.873,0.454-1.27-0.012
		c-0.347-0.407-0.103-0.817,0.074-1.221c0.268-0.611,0.698-0.339,1.102-0.222c0.299,0.086,0.601,0.168,0.892,0.277
		c0.722,0.266,1.354,0.265,1.732-0.544c0.376-0.801,0.843-1.659,0.043-2.415C67.667,22.582,66.668,22.2,65.548,22.238z
		 M52.726,23.892c-0.015,0-0.029,0-0.043,0c0-0.375-0.008-0.751,0.001-1.126c0.014-0.509,0.015-1.091,0.707-1.1
		c0.668-0.008,0.762,0.553,0.768,1.069c0.009,0.809,0.04,1.581,1.181,1.389c1.189-0.2,0.652-1.162,0.72-1.811
		c0.077-0.736-0.456-1.086-1.088-1.334c-2.621-1.033-4.526,0.415-4.151,3.17c0.347,2.554,1.732,3.57,3.887,2.857
		c0.565-0.188,1.001-0.501,1.179-1.101c0.085-0.288-0.016-0.519-0.284-0.582c-0.574-0.136-0.996-0.059-1.42,0.528
		c-0.739,1.022-1.247,0.462-1.439-0.462C52.644,24.909,52.726,24.392,52.726,23.892z M57.576,23.936c-0.01,0-0.021,0-0.03,0
		c0,0.686-0.004,1.371,0.001,2.056c0.004,0.51,0,1.043,0.704,1.091c0.712,0.049,0.755-0.47,0.821-0.987
		c0.117-0.923,0.258-1.843,0.393-2.764c0.063-0.435,0.109-0.939,0.679-0.947c0.54-0.007,0.443,0.498,0.487,0.837
		c0.081,0.619,0.484,0.827,1.03,0.866c0.711,0.05,0.709-0.495,0.857-0.979c0.449-1.476-0.287-1.934-1.594-1.966
		c-0.518-0.014-0.95,0.38-1.576-0.027c-1.203-0.781-1.847-0.295-1.777,1.139C57.599,22.814,57.576,23.376,57.576,23.936z"/>
	<path fill-rule="evenodd" clip-rule="evenodd" fill="#EFA2A2" d="M71.867,29.191c-0.052,0.446-0.313,0.654-0.748,0.625
		c-0.396-0.026-0.752-0.155-0.715-0.641c0.028-0.366,0.309-0.507,0.649-0.512C71.436,28.661,71.809,28.687,71.867,29.191z"/>
	<path fill-rule="evenodd" clip-rule="evenodd" fill="#EFA2A2" d="M43.431,23.51c0.73,0.151,0.827,0.728,0.939,1.251
		c0.11,0.508-0.148,0.833-0.673,0.874c-0.938,0.072-0.84-0.765-0.996-1.276C42.531,23.805,43.114,23.717,43.431,23.51z"/>
	<path fill-rule="evenodd" clip-rule="evenodd" fill="#EFA2A2" d="M65.99,25.24c-0.49-0.124-0.91-0.316-0.712-0.889
		c0.174-0.506,0.255-1.193,0.991-1.194c0.54,0,0.783,0.423,0.652,0.913C66.787,24.572,66.757,25.24,65.99,25.24z"/>
</g>
<g>
	<path fill="#040000" d="M123.763,63.742l7.576-0.475c0.164,1.23,0.498,2.168,1.002,2.813c0.82,1.043,1.992,1.564,3.516,1.564
		c1.137,0,2.013-0.267,2.628-0.8s0.923-1.151,0.923-1.854c0-0.668-0.293-1.266-0.879-1.793s-1.945-1.025-4.078-1.494
		c-3.492-0.785-5.982-1.828-7.471-3.129c-1.5-1.301-2.25-2.959-2.25-4.975c0-1.324,0.384-2.575,1.151-3.753s1.922-2.104,3.463-2.777
		s3.653-1.011,6.337-1.011c3.293,0,5.804,0.612,7.532,1.837s2.757,3.173,3.085,5.845l-7.506,0.439
		c-0.199-1.16-0.618-2.004-1.257-2.531s-1.521-0.791-2.646-0.791c-0.926,0-1.623,0.196-2.092,0.589s-0.703,0.87-0.703,1.433
		c0,0.41,0.193,0.779,0.58,1.107c0.375,0.34,1.266,0.656,2.672,0.949c3.48,0.75,5.974,1.509,7.479,2.276s2.602,1.72,3.287,2.856
		s1.028,2.408,1.028,3.814c0,1.652-0.457,3.176-1.371,4.57s-2.191,2.452-3.832,3.173s-3.709,1.081-6.205,1.081
		c-4.383,0-7.418-0.844-9.105-2.531S123.986,66.344,123.763,63.742z"/>
	<path fill="#040000" d="M150.295,46.498h7.563l2.723,14.426l3.985-14.426h7.536l3.995,14.407l2.726-14.407h7.524l-5.681,25.77
		h-7.809l-4.52-16.225l-4.502,16.225h-7.809L150.295,46.498z"/>
	<path fill="#040000" d="M190.732,46.498h21.34V52h-13.359v4.096h12.393v5.256h-12.393v5.08h13.746v5.836h-21.727V46.498z"/>
	<path fill="#040000" d="M218.53,46.498h21.34V52h-13.359v4.096h12.393v5.256h-12.393v5.08h13.746v5.836H218.53V46.498z"/>
	<path fill="#040000" d="M244.536,46.498h24.205v6.363h-8.121v19.406h-7.963V52.861h-8.121V46.498z"/>
	<path fill="#040000" d="M274.179,46.498h7.963v9.018h8.701v-9.018h7.998v25.77h-7.998V61.844h-8.701v10.424h-7.963V46.498z"/>
	<path fill="#040000" d="M304.93,59.4c0-4.207,1.172-7.482,3.516-9.826s5.607-3.516,9.791-3.516c4.289,0,7.594,1.151,9.914,3.454
		s3.48,5.528,3.48,9.677c0,3.012-0.507,5.481-1.521,7.409s-2.479,3.428-4.395,4.5s-4.304,1.608-7.163,1.608
		c-2.906,0-5.312-0.463-7.216-1.389s-3.448-2.391-4.632-4.395S304.93,62.412,304.93,59.4z M312.893,59.436
		c0,2.602,0.483,4.471,1.45,5.607s2.282,1.705,3.946,1.705c1.711,0,3.035-0.557,3.973-1.67s1.406-3.111,1.406-5.994
		c0-2.426-0.489-4.198-1.468-5.317s-2.306-1.679-3.981-1.679c-1.605,0-2.895,0.568-3.867,1.705S312.893,56.811,312.893,59.436z"/>
	<path fill="#040000" d="M354.49,46.498h7.945v15.353c0,1.522-0.237,2.96-0.712,4.313s-1.219,2.536-2.232,3.548
		c-1.014,1.013-2.077,1.725-3.19,2.134c-1.547,0.574-3.404,0.861-5.572,0.861c-1.254,0-2.622-0.088-4.104-0.263
		c-1.482-0.176-2.722-0.524-3.718-1.045s-1.907-1.262-2.733-2.222c-0.826-0.96-1.392-1.95-1.696-2.969
		c-0.492-1.64-0.738-3.091-0.738-4.356V46.498h7.945v15.719c0,1.405,0.39,2.503,1.169,3.293c0.779,0.791,1.86,1.186,3.243,1.186
		c1.371,0,2.446-0.389,3.226-1.168c0.779-0.778,1.169-1.882,1.169-3.311V46.498z"/>
	<path fill="#040000" d="M368.12,63.742l7.576-0.475c0.164,1.23,0.498,2.168,1.002,2.813c0.82,1.043,1.992,1.564,3.516,1.564
		c1.137,0,2.013-0.267,2.628-0.8s0.923-1.151,0.923-1.854c0-0.668-0.293-1.266-0.879-1.793s-1.945-1.025-4.078-1.494
		c-3.492-0.785-5.982-1.828-7.471-3.129c-1.5-1.301-2.25-2.959-2.25-4.975c0-1.324,0.384-2.575,1.151-3.753s1.922-2.104,3.463-2.777
		s3.653-1.011,6.337-1.011c3.293,0,5.804,0.612,7.532,1.837s2.757,3.173,3.085,5.845l-7.506,0.439
		c-0.199-1.16-0.618-2.004-1.257-2.531s-1.521-0.791-2.646-0.791c-0.926,0-1.623,0.196-2.092,0.589s-0.703,0.87-0.703,1.433
		c0,0.41,0.193,0.779,0.58,1.107c0.375,0.34,1.266,0.656,2.672,0.949c3.48,0.75,5.974,1.509,7.479,2.276s2.602,1.72,3.287,2.856
		s1.028,2.408,1.028,3.814c0,1.652-0.457,3.176-1.371,4.57s-2.191,2.452-3.832,3.173s-3.709,1.081-6.205,1.081
		c-4.383,0-7.418-0.844-9.105-2.531S368.343,66.344,368.12,63.742z"/>
	<path fill="#040000" d="M397.29,46.498h21.34V52H405.27v4.096h12.393v5.256H405.27v5.08h13.746v5.836H397.29V46.498z"/>
</g>
</svg>
