<?xml version="1.0" encoding="utf-8"?>
<!-- Generator: Adobe Illustrator 16.0.0, SVG Export Plug-In . SVG Version: 6.00 Build 0)  -->
<!DOCTYPE svg PUBLIC "-//W3C//DTD SVG 1.1//EN" "http://www.w3.org/Graphics/SVG/1.1/DTD/svg11.dtd">
<svg version="1.1" id="圖層_1" xmlns="http://www.w3.org/2000/svg" xmlns:xlink="http://www.w3.org/1999/xlink" x="0px" y="0px"
	 width="290px" height="120px" viewBox="0 0 290 120" enable-background="new 0 0 290 120" xml:space="preserve">
<circle fill="#FFFFFF" cx="63.25" cy="60.748" r="51.5"/>
<path fill="#EFA2A2" d="M9.356,61.326C9.328,31.343,33.641,7.027,63.717,7.075c29.965,0.046,54.215,24.383,54.186,54.458
	c-0.028,29.776-24.512,54.175-54.406,54.08C33.406,115.519,9.316,91.201,9.356,61.326z M112.234,61.146
	c0.135-26.913-21.797-49.096-49.049-49.067c-27.087,0.03-49.102,21.485-49.133,49.055c-0.029,27.825,22.354,49.203,49.213,49.166
	C90.391,110.262,112.391,88.149,112.234,61.146z"/>
<path fill="#EFA2A2" d="M56.751,106.069c-4.262-0.504-7.994-1.579-11.516-3.176c-13.901-6.306-22.88-16.879-26.304-31.771
	c-2.707-11.774-0.937-23.054,5.442-33.418c7.117-11.565,17.401-18.998,30.77-21.145c18.979-3.048,34.345,3.571,45.602,19.215
	c4.633,6.439,6.953,13.779,7.608,21.711c1.004,12.157-2.369,22.985-9.97,32.366c-6.72,8.293-15.433,13.646-25.992,15.762
	c-0.516,0.104-1.175,0.566-1.595,0.113c-0.515-0.554,0.093-1.189,0.294-1.727c2.235-5.98,4.493-11.958,6.814-17.906
	c0.534-1.369,0.574-1.924-1.218-1.906c-8.97,0.082-17.941,0.074-26.913,0.008c-1.756-0.014-1.798,0.441-1.184,1.904
	C51.325,92.612,53.946,99.177,56.751,106.069z M37.839,28.048c0.214-0.678,1.343-1.275,0.309-2.061
	c-0.676-0.514-1.265,0.093-1.534,0.596c-0.732,1.369,0.333,1.381,1.239,1.454c0.145,2.441,2.242,3.53,3.589,5.132
	c0.266,0.316,0.693,0.129,0.99-0.156c0.391-0.375,0.327-0.767,0.042-1.166c-0.577-0.81-1.215-1.583-1.712-2.438
	C40.082,28.241,39.223,27.621,37.839,28.048z M77.376,49.499c0.03-2.106-0.834-3.443-2.112-4.558
	c-1.61-1.405-3.644-1.922-5.609-2.535c-3.43-1.067-6.086-2.958-7.146-6.548c-0.273-0.928-0.638-0.974-1.449-0.708
	c-3.042,0.996-4.823,4.527-3.943,7.94c0.606,2.348,0.39,2.69-2,2.617c-2.806-0.087-4.866,1.109-6.146,3.527
	c-1.198,2.263-1.074,4.531,0.348,6.735c1.243,1.928,0.867,2.661-1.45,2.896c-1.48,0.15-2.818,0.57-3.914,1.604
	c-0.375,0.353-0.802,0.88-0.095,1.195c2.209,0.986,3.447,3.074,5.277,4.479c2.025,1.555,4.413,1.461,6.364-0.26
	c0.938-0.828,1.781-1.766,2.696-2.623c2.983-2.795,6.646-2.994,9.89-0.478c0.935,0.725,1.733,1.628,2.589,2.456
	c2.815,2.727,5.416,2.691,8.182-0.08c1.409-1.41,2.658-3.014,4.662-3.702c0.958-0.331,0.757-0.983,0.256-1.629
	c-1.767-2.27-4.071-3.45-6.959-3.5c-0.834-0.014-1.908,0.371-2.301-0.727c-0.358-0.999,0.522-1.594,1.131-2.194
	C76.836,52.231,77.289,50.779,77.376,49.499z M63.323,75.147c-5.266,0-10.531,0-15.798,0c-4.808,0-4.716,0.002-4.833,4.76
	c-0.042,1.761,0.581,2.027,2.144,2.02c11.346-0.063,22.693-0.035,34.042-0.035c4.913,0,4.837,0,4.92-4.854
	c0.027-1.65-0.554-1.941-2.043-1.923C75.611,75.192,69.468,75.147,63.323,75.147z M62.841,72.819c4.579,0,9.158,0.035,13.737-0.01
	c4.501-0.045,8.25-3.228,8.66-7.285c0.055-0.535,0.311-1.236-0.224-1.582c-0.59-0.379-1.271-0.008-1.729,0.392
	c-1.132,0.987-2.186,2.065-3.269,3.106c-2.107,2.024-4.585,2.76-7.415,1.969c-1.867-0.521-3.271-1.719-4.494-3.235
	c-2.803-3.474-6.042-3.553-9.07-0.335c-0.603,0.641-1.215,1.271-1.857,1.868c-2.968,2.753-7.219,2.709-10.16-0.106
	c-0.951-0.912-1.839-1.889-2.793-2.795c-0.64-0.609-1.479-1.375-2.292-0.836c-0.682,0.452-0.701,1.498-0.536,2.424
	c0.745,4.181,3.294,6.369,7.704,6.416C53.681,72.856,58.261,72.819,62.841,72.819z M90.913,32.852
	c-0.011-0.67-0.52-1.392-1.163-1.627c-1.676-0.611-2.226-2.385-3.858-3.212c-1.99-1.007-1.769-1.453-2.971,0.457
	c-0.5,0.792-0.987,1.594-1.466,2.398c-0.225,0.375-0.508,0.795-0.042,1.167c0.473,0.377,0.955,0.234,1.327-0.185
	c0.622-0.699,1.204-1.432,1.818-2.139c0.336-0.387,0.771-0.811,1.271-0.414c0.583,0.463,0.232,1.012-0.124,1.476
	c-0.572,0.742-1.171,1.464-1.732,2.213c-0.297,0.396-0.294,0.808,0.091,1.176c0.447,0.428,0.775,0.165,1.111-0.167
	c0.755-0.748,1.515-1.492,2.281-2.229c0.428-0.413,0.889-0.457,1.311-0.004c0.414,0.444,0.107,0.806-0.204,1.13
	c-0.736,0.767-1.492,1.515-2.225,2.285c-0.339,0.354-0.423,0.765-0.08,1.174c0.404,0.482,0.849,0.446,1.305,0.07
	c0.914-0.755,1.834-1.503,2.738-2.271C90.638,33.861,90.899,33.506,90.913,32.852z M25.782,63.06
	c1.653,0.006,2.989-1.299,3.021-2.949c0.033-1.652-1.251-3.009-2.901-3.067c-1.726-0.059-3.134,1.317-3.114,3.042
	C22.805,61.735,24.132,63.052,25.782,63.06z M103.366,60.056c0.005-1.651-1.304-2.985-2.954-3.014
	c-1.654-0.028-3.009,1.258-3.063,2.908c-0.056,1.726,1.323,3.131,3.049,3.109C102.051,63.036,103.362,61.709,103.366,60.056z
	 M77.607,26.561c-1.147-0.026-1.81,0.305-1.973,1.166c-0.146,0.775,0.353,1.27,1.014,1.613c2.757,1.43,2.756,1.432,4.473-1.082
	c0.069-0.104,0.16-0.195,0.219-0.304c0.447-0.831,1.474-1.581,0.539-2.65c-1.029-1.176-2.303-1.927-3.939-1.728
	c-0.667,0.081-0.867,0.631-0.952,1.226c-0.071,0.505,0.158,0.794,0.583,1.05c0.583,0.349,0.917,0.137,1.214-0.369
	c0.25-0.424,0.473-0.958,1.13-0.633c0.388,0.191,0.521,0.538,0.316,0.938c-0.272,0.54-0.438,1.252-1.286,1.101
	C78.399,26.792,77.863,26.625,77.607,26.561z M51.349,21.612c-3.054,0.013-4.138,1.693-2.862,4.293
	c1.116,2.274,2.511,2.765,4.37,1.524c0.521-0.347,1.086-0.712,0.959-1.461c-0.033-0.193-0.302-0.472-0.485-0.493
	c-0.784-0.087-1.081,0.395-1.209,1.108c-0.071,0.396-0.44,0.676-0.84,0.542c-0.24-0.08-0.463-0.406-0.564-0.67
	c-0.149-0.388,0.02-0.741,0.399-0.938c0.277-0.144,0.563-0.315,0.863-0.363c1.229-0.198,1.474-0.959,1.269-2.044
	C53.037,21.992,52.385,21.495,51.349,21.612z M45.064,24.263c-1.224,0.009-2.924,1.082-3.505,2.239
	c-0.653,1.301,0.521,1.944,1.094,2.73c1.552,2.127,4.127,2.019,5.177-0.152c0.225-0.465,0.374-1.025-0.252-1.274
	c-0.469-0.186-0.893,0.159-1.016,0.593c-0.166,0.588-0.061,1.385-0.891,1.435c-0.896,0.054-0.882-0.915-1.271-1.43
	c-0.261-0.347-0.464-0.742-0.671-1.127c-0.312-0.579-0.577-1.26,0.14-1.647c0.771-0.417,0.872,0.448,1.149,0.861
	c0.33,0.489,0.614,1,1.321,0.655c0.38-0.186,0.958-0.36,0.8-0.887C46.836,25.242,46.488,24.161,45.064,24.263z M72.552,21.237
	c-1.758-0.04-1.817,0.037-2.405,3.16c-0.38,2.021,0.974,3.477,3.015,3.265c0.529-0.055,1.015-0.177,1.143-0.759
	c0.042-0.19-0.081-0.538-0.235-0.626c-0.403-0.233-0.837-0.203-1.182,0.187c-0.425,0.48-0.873,0.454-1.271-0.012
	c-0.347-0.407-0.103-0.817,0.074-1.221c0.269-0.611,0.698-0.339,1.103-0.222c0.299,0.086,0.601,0.168,0.892,0.277
	c0.722,0.266,1.354,0.265,1.732-0.544c0.376-0.801,0.843-1.659,0.043-2.415C74.671,21.582,73.672,21.2,72.552,21.237z
	 M59.729,22.892c-0.015,0-0.029,0-0.043,0c0-0.375-0.008-0.751,0.001-1.126c0.014-0.509,0.016-1.091,0.707-1.1
	c0.668-0.008,0.762,0.553,0.769,1.069c0.009,0.809,0.04,1.581,1.181,1.389c1.188-0.2,0.652-1.162,0.72-1.811
	c0.077-0.736-0.456-1.086-1.088-1.334c-2.621-1.033-4.526,0.415-4.151,3.17c0.348,2.554,1.732,3.57,3.888,2.857
	c0.564-0.188,1.001-0.501,1.179-1.101c0.085-0.288-0.016-0.519-0.284-0.582c-0.574-0.136-0.996-0.059-1.42,0.528
	c-0.739,1.022-1.247,0.462-1.438-0.462C59.647,23.909,59.729,23.392,59.729,22.892z M64.58,22.936c-0.011,0-0.021,0-0.03,0
	c0,0.686-0.004,1.371,0.001,2.056c0.004,0.51,0,1.043,0.704,1.091c0.712,0.049,0.755-0.47,0.82-0.987
	c0.117-0.923,0.259-1.843,0.394-2.764c0.063-0.435,0.109-0.939,0.679-0.947c0.54-0.007,0.443,0.498,0.487,0.837
	c0.081,0.619,0.484,0.827,1.03,0.866c0.711,0.05,0.709-0.495,0.856-0.979c0.449-1.476-0.287-1.934-1.594-1.966
	c-0.519-0.014-0.95,0.38-1.576-0.027c-1.203-0.781-1.847-0.295-1.777,1.139C64.602,21.813,64.58,22.375,64.58,22.936z"/>
<path fill="#EFA2A2" d="M78.871,28.19c-0.053,0.446-0.313,0.654-0.748,0.625c-0.396-0.026-0.752-0.155-0.716-0.641
	c0.028-0.366,0.31-0.507,0.649-0.512C78.439,27.661,78.812,27.687,78.871,28.19z"/>
<path fill="#EFA2A2" d="M50.434,22.51c0.73,0.151,0.827,0.728,0.939,1.251c0.109,0.508-0.148,0.833-0.674,0.874
	c-0.938,0.072-0.84-0.765-0.995-1.276C49.534,22.805,50.117,22.716,50.434,22.51z"/>
<path fill="#EFA2A2" d="M72.994,24.239c-0.49-0.124-0.91-0.316-0.713-0.889c0.175-0.506,0.256-1.193,0.991-1.194
	c0.54,0,0.783,0.423,0.652,0.913C73.791,23.571,73.76,24.239,72.994,24.239z"/>
<path fill="#232323" d="M138.293,50.66l6.826-0.428c0.147,1.108,0.449,1.954,0.903,2.534c0.739,0.94,1.796,1.41,3.168,1.41
	c1.025,0,1.815-0.241,2.37-0.722c0.554-0.48,0.832-1.037,0.832-1.67c0-0.602-0.265-1.14-0.792-1.615
	c-0.529-0.475-1.754-0.924-3.676-1.346c-3.147-0.708-5.391-1.646-6.733-2.82c-1.352-1.172-2.027-2.666-2.027-4.482
	c0-1.193,0.347-2.32,1.037-3.381c0.691-1.062,1.732-1.896,3.12-2.502c1.389-0.606,3.292-0.911,5.71-0.911
	c2.969,0,5.231,0.551,6.789,1.655s2.483,2.858,2.779,5.266l-6.764,0.396c-0.179-1.045-0.558-1.806-1.132-2.28
	c-0.577-0.475-1.372-0.713-2.386-0.713c-0.835,0-1.463,0.177-1.886,0.531c-0.424,0.354-0.634,0.784-0.634,1.291
	c0,0.37,0.175,0.702,0.522,0.997c0.339,0.307,1.141,0.591,2.408,0.855c3.138,0.676,5.384,1.359,6.74,2.05
	c1.355,0.691,2.345,1.55,2.961,2.573c0.617,1.024,0.927,2.169,0.927,3.437c0,1.489-0.412,2.861-1.235,4.118
	c-0.824,1.256-1.974,2.208-3.453,2.859c-1.479,0.65-3.343,0.974-5.592,0.974c-3.951,0-6.686-0.76-8.205-2.281
	C139.354,54.935,138.495,53.004,138.293,50.66z"/>
<path fill="#232323" d="M162.203,35.124h6.813l2.453,12.998l3.591-12.998h6.79l3.6,12.98l2.456-12.98h6.779l-5.118,23.218h-7.036
	l-4.071-14.618l-4.057,14.618h-7.036L162.203,35.124z"/>
<path fill="#232323" d="M198.635,35.124h19.229v4.957h-12.038v3.691h11.168v4.735h-11.168v4.577h12.389v5.258h-19.58V35.124
	L198.635,35.124z"/>
<path fill="#232323" d="M223.684,35.124h19.228v4.957h-12.036v3.691h11.166v4.735h-11.166v4.577h12.385v5.258h-19.575
	L223.684,35.124L223.684,35.124z"/>
<path fill="#232323" d="M247.116,35.124h21.809v5.733h-7.317v17.485h-7.175V40.856h-7.316V35.124L247.116,35.124z"/>
<path fill="#232323" d="M138.668,65.757h7.174v8.124h7.844v-8.124h7.205v23.218h-7.205v-9.392h-7.844v9.392h-7.174V65.757z"/>
<path fill="#232323" d="M166.377,77.382c0-3.791,1.057-6.741,3.168-8.854c2.11-2.111,5.051-3.168,8.821-3.168
	c3.864,0,6.843,1.037,8.933,3.111c2.09,2.075,3.136,4.981,3.136,8.721c0,2.713-0.458,4.938-1.371,6.675
	c-0.913,1.735-2.233,3.088-3.959,4.055c-1.726,0.966-3.878,1.449-6.454,1.449c-2.619,0-4.787-0.417-6.501-1.253
	c-1.716-0.834-3.106-2.153-4.174-3.959C166.91,82.354,166.377,80.096,166.377,77.382z M173.553,77.413
	c0,2.345,0.436,4.028,1.307,5.053s2.057,1.536,3.555,1.536c1.543,0,2.735-0.502,3.581-1.505c0.845-1.003,1.267-2.804,1.267-5.399
	c0-2.187-0.439-3.783-1.322-4.791c-0.881-1.009-2.077-1.514-3.586-1.514c-1.446,0-2.609,0.512-3.484,1.536
	C173.992,73.354,173.553,75.048,173.553,77.413z"/>
<path fill="#232323" d="M211.031,65.757h7.162V79.59c0,1.371-0.214,2.666-0.644,3.887c-0.429,1.219-1.098,2.285-2.012,3.195
	c-0.914,0.912-1.873,1.555-2.875,1.924c-1.394,0.518-3.066,0.775-5.021,0.775c-1.13,0-2.362-0.08-3.697-0.238
	s-2.453-0.472-3.351-0.941c-0.897-0.469-1.717-1.137-2.463-2c-0.744-0.865-1.254-1.758-1.527-2.676
	c-0.443-1.478-0.665-2.785-0.665-3.926V65.757h7.159v14.162c0,1.267,0.351,2.256,1.053,2.968c0.702,0.713,1.676,1.067,2.922,1.067
	c1.234,0,2.204-0.351,2.906-1.054c0.701-0.699,1.053-1.693,1.053-2.981L211.031,65.757L211.031,65.757z"/>
<path fill="#232323" d="M223.315,81.293l6.824-0.427c0.148,1.106,0.449,1.952,0.904,2.532c0.738,0.94,1.795,1.41,3.168,1.41
	c1.023,0,1.813-0.24,2.367-0.722c0.555-0.479,0.831-1.036,0.831-1.67c0-0.603-0.264-1.142-0.792-1.614
	c-0.527-0.477-1.752-0.925-3.674-1.348c-3.146-0.707-5.391-1.646-6.73-2.818c-1.353-1.173-2.027-2.666-2.027-4.482
	c0-1.192,0.347-2.32,1.037-3.383c0.69-1.061,1.73-1.895,3.119-2.502c1.389-0.604,3.291-0.91,5.709-0.91
	c2.968,0,5.23,0.552,6.787,1.654c1.558,1.104,2.483,2.859,2.779,5.268l-6.763,0.396c-0.181-1.046-0.558-1.808-1.134-2.281
	c-0.574-0.476-1.37-0.713-2.383-0.713c-0.836,0-1.463,0.176-1.886,0.529s-0.634,0.785-0.634,1.292c0,0.369,0.174,0.702,0.521,0.998
	c0.338,0.306,1.143,0.591,2.408,0.854c3.135,0.676,5.383,1.357,6.738,2.051c1.355,0.691,2.344,1.55,2.962,2.572
	c0.616,1.023,0.925,2.17,0.925,3.437c0,1.489-0.41,2.86-1.234,4.118c-0.822,1.257-1.973,2.208-3.451,2.857
	c-1.479,0.65-3.344,0.976-5.592,0.976c-3.949,0-6.684-0.761-8.203-2.281C224.375,85.566,223.516,83.639,223.315,81.293z"/>
<path fill="#232323" d="M249.596,65.757h19.228v4.957h-12.037v3.69h11.166v4.734h-11.166v4.577h12.386v5.259h-19.576V65.757
	L249.596,65.757z"/>
</svg>
